<?xml version="1.0" standalone="no"?>
<!DOCTYPE svg PUBLIC "-//W3C//DTD SVG 20010904//EN"
 "http://www.w3.org/TR/2001/REC-SVG-20010904/DTD/svg10.dtd">
<svg version="1.0" xmlns="http://www.w3.org/2000/svg"
 width="500.000000pt" height="500.000000pt" viewBox="0 0 500.000000 500.000000"
 preserveAspectRatio="xMidYMid meet">

<g transform="translate(0.000000,500.000000) scale(0.100000,-0.100000)"
fill="#000000" stroke="none">
<path d="M2457 3929 c-58 -34 -27 -139 42 -139 15 0 37 9 49 20 12 11 25 20
30 20 6 0 26 -19 47 -41 119 -132 176 -444 126 -688 -15 -70 -19 -107 -12
-114 7 -7 12 -6 15 4 71 220 55 517 -38 708 -18 38 -55 90 -88 124 -32 32 -58
64 -58 72 0 35 -74 57 -113 34z m84 -40 c16 -31 -3 -69 -35 -69 -45 0 -73 49
-44 78 20 20 66 14 79 -9z"/>
<path d="M2118 3676 c-99 -27 -158 -108 -144 -197 7 -46 44 -139 56 -139 18 0
18 16 -1 53 -12 22 -23 63 -25 91 -7 68 17 113 76 146 40 22 56 25 153 25 72
0 107 4 107 11 0 25 -144 31 -222 10z"/>
<path d="M2780 3676 c0 -10 8 -16 22 -16 12 0 48 -7 80 -16 134 -38 155 -161
52 -316 -50 -74 -51 -105 -2 -48 90 106 118 235 69 314 -28 44 -99 82 -174 92
-39 6 -47 4 -47 -10z"/>
<path d="M2565 3651 c-278 -84 -562 -338 -591 -529 -4 -26 -16 -59 -27 -74
-46 -62 33 -146 99 -104 57 38 52 105 -11 132 -40 16 -41 21 -20 90 54 179
323 392 589 467 28 8 52 19 54 25 5 16 -22 14 -93 -7z m-525 -611 c24 -24 25
-43 4 -64 -18 -19 -55 -21 -72 -4 -19 19 -14 55 10 72 29 20 34 20 58 -4z"/>
<path d="M2462 3338 c-18 -18 -14 -63 7 -82 25 -23 49 -18 74 16 19 25 19 28
3 52 -18 28 -63 35 -84 14z"/>
<path d="M2104 3248 c-5 -7 14 -31 52 -65 225 -203 558 -319 738 -258 25 9 57
13 71 9 40 -10 73 4 90 37 28 54 -5 109 -65 109 -49 0 -75 -28 -73 -80 2 -37
0 -40 -35 -50 -183 -50 -496 62 -709 254 -42 39 -64 53 -69 44z m926 -218 c26
-48 -30 -91 -70 -55 -37 33 -19 75 32 75 17 0 31 -7 38 -20z"/>
<path d="M2260 2964 c0 -28 61 -139 98 -177 71 -74 168 -90 238 -38 47 34 94
87 94 107 0 23 -8 17 -68 -45 -46 -48 -65 -60 -99 -66 -78 -12 -161 53 -218
173 -29 61 -45 78 -45 46z"/>
<path d="M2067 2622 c-3 -4 -30 -72 -61 -151 -73 -186 -84 -209 -107 -216 -38
-12 -17 -25 41 -25 33 0 60 4 60 10 0 6 -7 10 -15 10 -25 0 -28 26 -10 79 l16
49 69 0 69 0 15 -39 c23 -56 21 -89 -4 -89 -11 0 -20 -4 -20 -10 0 -6 33 -10
80 -10 47 0 80 4 80 10 0 6 -6 10 -14 10 -24 0 -42 34 -112 212 -62 156 -75
180 -87 160z m27 -146 c15 -38 24 -71 22 -73 -2 -2 -29 -3 -59 -1 l-55 3 22
55 c13 30 26 64 30 74 9 25 10 23 40 -58z"/>
<path d="M2606 2525 c-30 -120 -29 -115 -16 -115 6 0 10 6 10 13 0 22 34 47
63 47 34 0 47 -25 47 -93 0 -74 -31 -121 -82 -125 -34 -3 -37 0 -49 32 -15 42
-49 51 -49 14 0 -45 36 -68 103 -68 37 0 51 6 88 39 43 38 44 40 44 101 0 57
-2 64 -34 92 -28 25 -40 29 -73 26 l-40 -4 6 40 c9 53 12 56 55 56 32 0 81 27
81 45 0 3 -29 5 -64 5 l-64 0 -26 -105z"/>
<path d="M2890 2614 c-39 -28 -49 -46 -50 -86 0 -42 27 -78 59 -78 32 0 33 17
5 45 -20 20 -24 32 -19 53 10 40 34 62 70 62 47 0 69 -30 68 -90 -1 -64 -31
-115 -122 -205 -39 -38 -71 -73 -71 -77 0 -5 53 -8 119 -8 l118 0 10 50 c12
60 6 70 -18 30 -18 -29 -22 -30 -86 -30 l-68 0 68 61 c37 34 77 79 87 100 28
53 26 116 -4 153 -20 25 -31 30 -82 33 -45 3 -65 0 -84 -13z"/>
<path d="M2320 2380 c0 -18 7 -20 75 -20 68 0 75 2 75 20 0 18 -7 20 -75 20
-68 0 -75 -2 -75 -20z"/>
<path d="M1368 1823 c8 -3 12 -33 12 -98 0 -81 -2 -94 -17 -98 -10 -3 7 -5 37
-5 42 -1 50 1 33 8 -19 8 -23 17 -23 50 0 39 1 40 33 40 42 0 77 25 77 55 0
37 -35 55 -105 54 -33 0 -54 -3 -47 -6z m110 -15 c7 -7 12 -21 12 -33 0 -29
-19 -45 -52 -45 -27 0 -28 2 -28 45 0 43 1 45 28 45 15 0 33 -5 40 -12z"/>
<path d="M1563 1819 c14 -8 17 -25 17 -94 0 -69 -3 -86 -17 -94 -14 -8 -6 -10
32 -10 28 1 42 3 33 6 -18 4 -20 12 -21 62 -1 40 18 35 63 -19 28 -34 49 -50
66 -50 21 0 18 5 -27 47 l-50 47 25 13 c45 24 45 76 -1 94 -35 13 -144 12
-120 -2z m101 -5 c19 -7 21 -55 4 -72 -7 -7 -25 -12 -40 -12 -27 0 -28 2 -26
45 1 40 4 45 24 45 12 0 29 -3 38 -6z"/>
<path d="M1833 1810 c-61 -37 -72 -103 -24 -150 36 -37 72 -46 122 -31 41 12
79 58 79 94 0 31 -32 76 -66 92 -43 20 -72 19 -111 -5z m88 0 c25 0 49 -42 49
-84 0 -58 -24 -88 -73 -89 -50 -1 -87 33 -87 83 0 56 48 108 88 94 8 -2 18 -4
23 -4z"/>
<path d="M2093 1810 c-84 -51 -49 -190 47 -190 36 0 100 31 100 49 0 9 5 22
12 29 9 9 3 12 -27 12 -30 0 -36 -3 -27 -12 20 -20 14 -48 -14 -58 -57 -22
-104 15 -104 83 0 48 14 75 45 87 30 11 85 -6 85 -26 0 -8 5 -14 10 -14 6 0
10 15 10 33 0 21 -3 28 -9 18 -6 -10 -13 -11 -29 -2 -30 16 -63 13 -99 -9z"/>
<path d="M2336 1735 c-21 -53 -46 -100 -55 -105 -12 -7 -6 -9 24 -9 22 0 34 3
28 6 -14 5 -17 31 -7 57 9 24 80 22 94 -3 15 -29 12 -49 -7 -54 -10 -3 5 -5
32 -6 42 0 47 2 33 12 -9 7 -33 54 -54 105 -20 51 -40 92 -43 92 -3 0 -23 -43
-45 -95z m59 3 c7 -26 5 -28 -24 -28 -29 0 -30 1 -20 26 20 54 31 54 44 2z"/>
<path d="M2500 1803 l0 -27 16 22 c10 14 25 22 45 22 l29 0 0 -90 c0 -74 -3
-91 -17 -99 -14 -8 -5 -10 37 -10 43 0 50 2 33 9 -21 9 -23 16 -23 95 0 67 3
87 15 91 24 9 63 -4 68 -24 3 -10 5 -6 6 11 l1 27 -105 0 -105 0 0 -27z"/>
<path d="M2754 1814 c24 -23 23 -162 -1 -180 -15 -11 -5 -13 70 -14 l87 0 0
27 0 27 -16 -22 c-10 -15 -25 -22 -48 -22 -41 0 -56 15 -56 57 0 36 23 54 43
34 18 -18 27 -13 27 14 0 14 -4 25 -10 25 -5 0 -10 -4 -10 -9 0 -5 -11 -11
-25 -13 -24 -5 -25 -3 -25 38 l0 44 41 0 c28 0 46 -6 55 -17 12 -17 13 -16 14
5 0 21 -4 22 -81 22 -73 0 -79 -1 -65 -16z"/>
<path d="M3016 1814 c-9 -24 2 -31 17 -10 9 12 23 17 42 14 l30 -3 3 -86 c3
-81 1 -86 -20 -97 -20 -9 -15 -11 32 -11 42 0 51 2 38 10 -15 8 -18 25 -18 99
l0 90 29 0 c20 0 35 -8 45 -22 l16 -22 0 27 0 27 -104 0 c-87 0 -105 -3 -110
-16z"/>
<path d="M3263 1819 c14 -8 17 -25 17 -94 0 -69 -3 -86 -17 -94 -14 -8 -7 -10
32 -10 39 0 46 2 33 10 -15 8 -18 24 -18 92 0 51 5 88 12 95 9 9 2 12 -32 12
-36 -1 -41 -3 -27 -11z"/>
<path d="M3383 1819 c14 -8 17 -25 17 -95 0 -78 -2 -85 -22 -94 -19 -7 -15 -9
21 -9 39 -1 42 1 27 12 -14 10 -16 25 -14 87 l3 75 39 -82 c21 -46 42 -83 46
-83 4 0 24 37 46 83 l39 82 3 -75 c2 -62 0 -77 -14 -87 -15 -11 -11 -13 32
-12 27 1 41 3 32 6 -16 4 -18 17 -18 98 0 65 4 95 13 98 6 3 -2 6 -19 6 -28 1
-32 -4 -67 -81 -21 -45 -41 -77 -45 -72 -5 5 -21 42 -37 82 -28 71 -29 72 -64
72 -29 -1 -33 -3 -18 -11z"/>
</g>
</svg>
