<?xml version="1.0" standalone="no"?>
<!DOCTYPE svg PUBLIC "-//W3C//DTD SVG 20010904//EN"
 "http://www.w3.org/TR/2001/REC-SVG-20010904/DTD/svg10.dtd">
<svg version="1.0" xmlns="http://www.w3.org/2000/svg"
 width="512.000000pt" height="512.000000pt" viewBox="0 0 512.000000 512.000000"
 preserveAspectRatio="xMidYMid meet">

<g transform="translate(0.000000,512.000000) scale(0.100000,-0.100000)"
fill="#000000" stroke="none">
<path d="M3650 3757 c0 -2 15 -16 33 -33 l32 -29 -29 33 c-28 30 -36 37 -36
29z"/>
<path d="M1484 3718 l-19 -23 23 19 c21 18 27 26 19 26 -2 0 -12 -10 -23 -22z"/>
<path d="M3766 3615 c31 -44 59 -87 62 -95 3 -8 12 -23 20 -32 8 -10 12 -18 9
-18 -4 0 2 -15 12 -34 26 -46 41 -102 30 -113 -5 -5 -1 -18 12 -32 19 -20 19
-22 3 -19 -14 2 -18 -2 -16 -17 2 -15 -2 -13 -17 10 -12 17 -21 27 -22 23 -1
-5 -3 -12 -4 -18 -1 -5 -3 -15 -4 -21 -1 -8 -5 -8 -15 0 -12 10 -19 8 -35 -8
-12 -12 -21 -17 -21 -11 0 5 9 15 20 22 11 7 20 17 20 21 0 5 -9 5 -20 2 -14
-5 -20 -2 -20 9 0 10 -8 16 -22 15 -17 -1 -19 -2 -5 -6 9 -2 17 -9 17 -14 0
-15 -34 -6 -42 11 -6 13 -7 13 -7 -1 -1 -11 -10 -16 -28 -16 -15 0 -33 7 -40
16 -12 14 -12 14 -6 -4 6 -18 5 -18 -10 -6 -10 8 -20 11 -24 7 -3 -3 -1 -6 6
-6 9 0 8 -5 -3 -15 -9 -9 -12 -23 -9 -32 5 -14 2 -13 -15 3 -13 12 -20 27 -17
37 4 10 -1 17 -14 22 -25 8 -44 -2 -35 -18 4 -7 -6 -1 -22 13 -27 24 -28 24
-9 1 l20 -23 -25 4 c-14 2 -24 9 -22 16 2 13 -25 1 -62 -28 -11 -8 -17 -10
-13 -5 3 6 -3 17 -15 24 -15 9 -18 10 -12 0 5 -9 1 -11 -14 -7 -21 6 -26 -1
-23 -29 1 -7 -5 -13 -14 -13 -9 0 -13 5 -10 10 4 6 8 21 11 34 3 20 0 24 -21
24 -22 0 -23 -2 -9 -12 14 -11 14 -13 0 -25 -14 -12 -16 -11 -17 5 0 16 -2 16
-9 -3 -5 -13 -12 -23 -14 -23 -3 0 -3 7 0 15 4 8 1 15 -6 15 -6 0 -8 5 -4 11
4 8 1 8 -12 1 -32 -16 -96 -13 -118 6 -18 14 -19 15 -8 0 10 -13 10 -17 0 -21
-9 -4 -7 -6 4 -6 9 -1 19 -5 22 -10 3 -4 -6 -6 -19 -3 -14 2 -25 9 -25 14 0 6
-9 8 -20 5 -10 -3 -19 -2 -18 2 0 3 0 13 -1 21 -1 13 -3 13 -10 0 -6 -8 -7
-18 -5 -22 3 -4 -2 -8 -10 -8 -19 0 -21 11 -4 28 9 9 9 12 0 12 -7 0 -12 -4
-12 -9 0 -5 -6 -11 -14 -14 -9 -4 -12 2 -10 19 1 13 -2 22 -7 18 -5 -3 -7 -9
-5 -13 3 -4 1 -13 -5 -21 -7 -13 -9 -12 -9 2 0 9 -5 20 -10 23 -7 4 -8 -3 -4
-22 6 -24 5 -26 -8 -16 -8 7 -18 10 -22 6 -4 -4 -4 0 -1 9 5 12 2 16 -12 13
-10 -2 -20 -4 -23 -4 -3 -1 2 -6 10 -11 12 -7 10 -9 -8 -7 -12 0 -22 7 -22 14
0 7 -4 13 -9 13 -14 0 -21 -26 -10 -37 6 -6 4 -10 -5 -10 -8 0 -14 5 -13 11 2
9 -16 11 -72 7 -14 -1 -17 -8 -15 -28 2 -16 1 -20 -2 -10 -3 9 -10 14 -16 11
-6 -4 -9 -1 -6 7 3 8 -5 19 -16 24 -17 9 -24 7 -34 -7 -15 -20 -32 -16 -32 8
0 9 5 12 13 8 6 -4 8 -3 4 1 -16 18 -35 13 -30 -9 4 -21 4 -21 -9 1 l-14 23
-18 -21 c-20 -24 -15 -49 11 -49 17 -1 17 -1 0 -11 -18 -11 -41 -3 -32 11 3 4
-1 12 -8 18 -13 11 -16 12 -48 12 -11 0 -18 4 -15 8 10 16 -29 9 -42 -7 -11
-14 -11 -14 -6 2 8 22 -5 22 -21 0 -7 -9 -19 -17 -28 -19 -15 -2 -15 0 1 23
16 26 16 26 -7 13 -13 -6 -21 -7 -17 -2 3 6 2 13 -4 17 -5 3 -10 2 -10 -3 0
-6 -6 -12 -14 -15 -7 -3 -13 0 -13 6 1 32 -4 48 -12 42 -6 -3 -15 4 -21 15 -7
13 -7 20 0 20 5 0 -4 13 -20 28 -16 16 -27 32 -23 35 3 4 1 7 -5 7 -7 0 -12 5
-12 11 0 18 -54 80 -84 96 -34 18 -176 27 -176 12 0 -6 -4 -8 -9 -5 -14 9 -83
-29 -124 -68 -21 -20 -42 -36 -47 -36 -5 0 -12 -9 -15 -20 -3 -11 -11 -20 -16
-20 -6 0 -7 -4 -4 -10 3 -5 1 -10 -5 -10 -6 0 -15 -11 -22 -25 -6 -13 -15 -22
-19 -19 -5 3 -7 -1 -4 -8 5 -16 -31 -62 -43 -54 -5 3 -8 -7 -7 -22 2 -15 0
-19 -2 -9 -2 9 -9 15 -14 12 -5 -4 -9 3 -9 14 0 12 -5 21 -11 21 -5 0 -7 -5
-4 -10 4 -7 -4 -9 -22 -7 -16 3 -27 10 -25 17 3 11 0 11 -12 0 -11 -8 -16 -9
-16 -1 0 6 -5 11 -10 11 -6 0 -9 -5 -8 -12 2 -6 -10 -13 -27 -15 -16 -2 -39
-4 -50 -6 -28 -4 -57 11 -48 26 5 9 4 9 -8 0 -18 -15 -72 -25 -64 -12 4 5 -4
9 -17 9 l-23 -1 23 -19 23 -19 -23 2 c-37 2 -59 37 -38 61 5 7 6 17 2 21 -4 5
-1 5 6 1 8 -5 12 1 12 18 0 22 26 92 40 106 3 3 13 21 22 40 20 39 29 54 76
125 l34 50 -32 -35 c-50 -55 -127 -177 -175 -275 -145 -296 -187 -634 -120
-959 46 -220 154 -446 309 -640 l28 -36 -17 -70 c-22 -92 -13 -102 14 -15 18
57 19 73 10 111 -6 24 -16 47 -22 51 -6 4 -7 1 -2 -7 5 -8 4 -11 -3 -6 -6 3
-11 14 -11 24 -1 40 -5 50 -16 45 -7 -2 -15 3 -19 12 -4 10 -2 14 6 9 6 -4 9
-3 6 2 -3 5 -2 18 3 29 6 16 8 17 8 3 1 -9 6 -20 13 -24 7 -4 8 -3 4 4 -9 15
7 15 22 0 9 -9 13 -7 18 7 6 15 9 13 21 -11 7 -16 11 -21 8 -11 -3 10 -1 15 5
12 18 -11 32 5 19 21 -10 12 -9 13 7 7 17 -6 18 -5 4 12 -14 17 -14 17 7 5 16
-11 19 -17 11 -27 -7 -8 -7 -13 0 -13 5 0 13 7 16 16 7 18 26 9 26 -12 0 -8
-4 -13 -8 -10 -5 3 -9 -1 -9 -9 0 -19 2 -19 23 2 10 10 21 19 26 19 4 1 13 2
19 3 5 0 8 5 5 9 -3 5 1 9 8 9 8 0 12 -10 10 -24 -1 -13 2 -21 7 -17 5 3 7 9
4 14 -3 5 -1 11 5 15 5 3 10 1 10 -4 0 -6 5 -11 11 -11 5 0 7 6 3 13 -5 7 0 6
11 -3 17 -14 18 -13 12 3 -4 10 -3 16 2 12 5 -3 12 1 15 7 3 7 3 3 1 -9 -3
-12 -1 -24 4 -28 7 -3 8 0 5 9 -3 9 -2 16 3 16 18 0 22 -13 12 -34 -7 -13 1
-9 20 12 17 18 31 29 31 25 0 -5 -6 -15 -12 -22 -11 -11 -10 -13 4 -8 11 4 15
2 12 -7 -3 -7 2 -16 11 -20 11 -4 14 -2 8 6 -12 21 -10 46 4 41 7 -3 10 -9 7
-14 -3 -5 2 -6 10 -3 9 3 16 10 16 16 0 5 7 2 16 -6 8 -9 21 -13 27 -9 21 13
37 12 37 -3 0 -9 -4 -13 -8 -10 -4 2 -14 1 -22 -5 -12 -7 -10 -9 8 -9 14 0 26
9 34 25 6 14 15 25 20 25 5 0 6 -5 3 -10 -3 -5 -1 -10 5 -10 7 0 9 -7 6 -16
-3 -9 -2 -12 5 -8 6 3 9 15 6 25 -7 27 7 31 27 8 15 -19 19 -19 29 -5 10 13
15 13 30 1 12 -8 14 -15 8 -20 -6 -3 -11 -1 -11 4 0 6 -5 11 -11 11 -16 0 -5
-25 12 -25 8 0 20 -4 26 -8 9 -6 11 -3 7 10 -5 16 -4 16 10 -1 9 -11 16 -14
16 -7 0 7 5 9 10 6 6 -4 10 -3 9 2 -5 30 2 35 21 15 22 -24 40 -31 21 -9 -8
11 -6 18 9 32 19 17 20 17 20 1 0 -10 -5 -14 -12 -10 -6 4 -8 3 -5 -3 9 -15
53 -10 49 6 -1 7 2 10 8 6 5 -3 10 -16 11 -28 0 -20 1 -21 8 -3 7 17 8 17 14
3 4 -10 15 -15 34 -13 15 2 32 1 38 -2 19 -12 65 -8 65 4 0 7 4 16 10 19 6 4
7 -1 3 -12 -5 -15 -3 -16 8 -5 16 15 33 16 23 0 -5 -7 -3 -8 5 -4 7 5 10 10 7
13 -5 6 21 63 29 63 2 0 3 -9 2 -19 0 -11 -5 -17 -10 -14 -5 3 -7 -3 -5 -12 1
-10 10 -20 18 -22 11 -3 12 -2 3 4 -9 6 -6 12 10 22 19 12 20 12 10 0 -7 -9
-9 -20 -3 -29 5 -9 4 -20 -3 -30 -6 -8 -2 -6 11 4 12 11 22 25 22 32 0 7 5 16
12 20 7 5 9 0 6 -14 -4 -15 -2 -19 8 -15 8 3 11 9 8 14 -3 5 10 9 28 9 31 -1
32 -1 13 -16 -18 -13 -17 -14 13 -8 24 5 33 3 38 -10 6 -15 7 -15 18 0 11 14
13 14 25 0 7 -8 19 -12 27 -9 10 4 12 0 7 -13 -6 -16 -4 -17 8 -7 13 11 29 10
94 -6 6 -2 12 -5 15 -8 3 -4 -2 -3 -10 2 -8 5 -12 5 -8 0 4 -4 34 -8 68 -9 33
0 60 -3 60 -6 0 -3 40 -6 89 -6 49 1 87 4 84 9 -2 4 5 7 16 7 11 0 23 5 27 11
4 8 9 7 15 -2 7 -12 9 -12 9 0 0 9 8 12 26 8 19 -3 24 -1 20 10 -4 9 -2 11 7
6 20 -13 35 -12 41 3 8 20 26 17 26 -3 0 -15 2 -16 10 -3 13 20 13 33 0 25 -5
-3 -10 1 -10 9 0 10 7 13 25 10 19 -3 23 -1 19 11 -4 8 -1 15 6 15 6 0 8 -5 5
-10 -3 -6 2 -13 11 -17 16 -6 16 -7 -2 -14 -16 -6 -16 -8 -2 -8 23 -1 32 17
18 34 -10 12 -9 15 4 15 9 0 16 -5 16 -11 0 -8 4 -8 14 0 11 9 12 6 9 -16 -4
-24 -3 -25 7 -10 6 9 18 17 27 17 14 0 14 -2 -2 -14 -18 -13 -17 -14 10 -9 17
3 36 11 44 16 10 9 17 6 27 -8 11 -15 14 -16 14 -3 0 26 26 41 42 24 17 -17
77 -24 98 -11 8 4 4 -4 -9 -18 -26 -28 -37 -35 -25 -15 4 7 3 8 -5 4 -6 -4 -9
-11 -6 -16 13 -21 -98 -180 -160 -231 -11 -9 -45 -40 -75 -69 -54 -51 -54 -51
-10 -19 85 62 264 252 328 348 109 162 188 350 229 541 26 122 26 469 0 588
-53 239 -178 500 -311 647 -26 29 -20 17 20 -40z m-1627 -92 c20 -17 191 -411
191 -440 0 -25 -32 -77 -91 -150 -33 -39 -59 -80 -59 -92 0 -29 108 -185 185
-269 37 -39 103 -99 148 -133 92 -69 285 -169 327 -169 23 0 42 17 106 96 114
139 111 137 149 131 19 -3 121 -48 228 -100 180 -87 195 -97 202 -125 8 -38
-10 -143 -35 -199 -50 -114 -240 -221 -395 -222 -27 -1 -84 8 -125 18 -96 25
-329 110 -411 151 -234 118 -476 352 -682 658 -154 229 -198 420 -136 600 37
109 116 212 183 243 56 25 185 26 215 2z m1786 -213 c3 -5 2 -10 -4 -10 -5 0
-13 5 -16 10 -3 6 -2 10 4 10 5 0 13 -4 16 -10z m-360 -29 c3 -5 1 -12 -5 -16
-6 -4 -8 -11 -5 -16 3 -5 -1 -6 -10 -2 -12 4 -13 8 -5 13 7 4 9 13 6 19 -4 6
-3 11 3 11 5 0 12 -4 16 -9z m-2018 -17 c0 -7 -3 -13 -6 -12 -28 3 -33 -3 -15
-16 16 -13 17 -17 5 -28 -8 -7 -11 -8 -8 -2 4 7 -1 18 -10 25 -15 12 -16 12
-10 -5 6 -16 5 -17 -7 -7 -12 10 -11 15 7 34 25 25 44 30 44 11z m-173 -15
c-8 -14 -21 -11 -21 5 0 8 6 12 14 9 7 -3 10 -9 7 -14z m96 1 c-8 -5 -17 -7
-19 -4 -3 3 1 9 9 14 8 5 17 7 19 4 3 -3 -1 -9 -9 -14z m1117 -2 c-3 -8 -6 -5
-6 6 -1 11 2 17 5 13 3 -3 4 -12 1 -19z m786 1 c-8 -8 -13 -7 -18 2 -5 8 -4
10 3 5 7 -4 12 -2 12 5 0 7 3 9 7 6 4 -4 2 -12 -4 -18z m147 -7 c13 -14 13
-15 -1 -4 -12 9 -19 9 -29 -1 -10 -10 -11 -9 -5 2 6 11 2 13 -17 9 -17 -3 -25
0 -25 9 0 18 56 7 77 -15z m-1936 2 c4 -10 1 -14 -6 -12 -15 5 -23 28 -10 28
5 0 13 -7 16 -16z m2145 9 c-1 -16 -18 -47 -18 -35 -1 6 -6 12 -12 12 -5 0 -7
-6 -3 -12 4 -7 3 -9 -1 -5 -5 4 -10 14 -11 23 -2 11 3 13 18 8 14 -4 18 -2 14
5 -4 6 -2 11 3 11 6 0 11 -3 10 -7z m-1202 -20 c0 -9 -4 -10 -12 -3 -7 5 -15
7 -19 3 -3 -4 -17 -8 -29 -9 -12 -2 -16 0 -9 2 6 3 10 9 7 13 -2 4 11 7 29 7
19 -1 33 -6 33 -13z m238 7 c-3 -5 -11 -10 -16 -10 -6 0 -7 5 -4 10 3 6 11 10
16 10 6 0 7 -4 4 -10z m180 0 c-3 -5 -11 -10 -16 -10 -6 0 -7 5 -4 10 3 6 11
10 16 10 6 0 7 -4 4 -10z m108 -4 c6 -15 -17 -16 -30 -1 -4 4 -2 5 5 1 6 -4
12 -2 12 3 0 15 7 14 13 -3z m-1768 -14 c-3 -3 -11 0 -18 7 -9 10 -8 11 6 5
10 -3 15 -9 12 -12z m1525 -16 c0 -3 -4 -8 -10 -11 -5 -3 -10 -1 -10 4 0 6 5
11 10 11 6 0 10 -2 10 -4z m-1315 -1216 c3 -5 1 -10 -4 -10 -6 0 -11 5 -11 10
0 6 2 10 4 10 3 0 8 -4 11 -10z m246 -14 c-6 -7 -8 -16 -4 -19 3 -4 4 -7 1 -7
-3 0 -11 7 -18 16 -11 12 -11 15 1 12 8 -2 13 3 11 10 -1 8 2 11 8 7 8 -5 8
-11 1 -19z m-154 -8 c-3 -8 -6 -5 -6 6 -1 11 2 17 5 13 3 -3 4 -12 1 -19z
m513 2 c0 -5 -7 -7 -15 -4 -8 4 -15 8 -15 10 0 2 7 4 15 4 8 0 15 -4 15 -10z
m344 -16 c3 -8 2 -12 -4 -9 -6 3 -10 10 -10 16 0 14 7 11 14 -7z m-1004 -2 c0
-5 -7 -9 -15 -9 -8 0 -12 4 -9 9 3 4 9 8 15 8 5 0 9 -4 9 -8z m557 -14 c-3 -8
-6 -5 -6 6 -1 11 2 17 5 13 3 -3 4 -12 1 -19z m512 8 c9 -10 7 -17 -6 -27 -16
-13 -17 -12 -4 4 9 11 10 17 2 17 -6 0 -11 5 -11 10 0 14 5 13 19 -4z m1200
-7 c-22 -13 -31 -11 -17 5 7 8 17 12 22 9 4 -3 2 -9 -5 -14z m-2244 2 c3 -5 2
-12 -3 -15 -5 -3 -9 1 -9 9 0 17 3 19 12 6z m172 -17 c2 -16 1 -16 -3 -1 -3 9
-10 15 -15 11 -5 -3 -6 -10 -3 -16 4 -7 2 -8 -4 -4 -18 11 -14 35 6 32 9 -2
18 -11 19 -22z m227 18 c3 -5 -1 -9 -9 -9 -8 0 -12 4 -9 9 3 4 7 8 9 8 2 0 6
-4 9 -8z m110 -3 c3 -3 -4 -5 -14 -6 -11 -1 -22 2 -25 8 -6 9 30 7 39 -2z m80
2 c4 -5 -3 -7 -14 -4 -23 6 -26 13 -6 13 8 0 17 -4 20 -9z m137 -14 c-10 -9
-11 -8 -5 6 3 10 9 15 12 12 3 -3 0 -11 -7 -18z m143 15 c3 -5 -1 -9 -9 -9 -8
0 -12 4 -9 9 3 4 7 8 9 8 2 0 6 -4 9 -8z m1253 -14 c-3 -8 -6 -5 -6 6 -1 11 2
17 5 13 3 -3 4 -12 1 -19z m-1497 8 c0 -2 -7 -9 -15 -16 -13 -11 -14 -10 -9 4
5 14 24 23 24 12z m74 -5 c3 -5 -1 -14 -8 -20 -12 -10 -13 -8 -9 8 6 23 9 25
17 12z m59 -11 c-3 -12 -8 -19 -11 -16 -5 6 5 36 12 36 2 0 2 -9 -1 -20z
m-826 -7 c0 -7 -4 -13 -7 -13 -4 0 -12 6 -18 13 -8 10 -6 13 7 13 10 0 18 -6
18 -13z m528 7 c3 -5 1 -10 -4 -10 -6 0 -11 5 -11 10 0 6 2 10 4 10 3 0 8 -4
11 -10z m469 -8 c3 7 5 4 3 -6 -1 -12 -11 -20 -24 -21 -16 -1 -20 2 -13 10 5
7 6 16 2 21 -4 4 0 3 10 -4 13 -10 17 -10 22 0z m23 -34 c-3 -8 -6 -5 -6 6 -1
11 2 17 5 13 3 -3 4 -12 1 -19z m36 5 c-3 -7 -9 -10 -14 -7 -14 8 -11 21 5 21
8 0 12 -6 9 -14z"/>
<path d="M3436 3322 c-3 -5 1 -9 9 -9 8 0 12 4 9 9 -3 4 -7 8 -9 8 -2 0 -6 -4
-9 -8z"/>
<path d="M1280 3309 c0 -5 5 -7 10 -4 6 3 10 8 10 11 0 2 -4 4 -10 4 -5 0 -10
-5 -10 -11z"/>
<path d="M3180 3303 c0 -13 5 -23 10 -23 13 0 13 11 0 30 -8 12 -10 11 -10 -7z"/>
<path d="M2736 3298 c5 -8 2 -9 -10 -5 -10 4 -15 3 -11 -3 8 -12 32 -13 39 -1
3 5 -1 12 -10 15 -10 4 -13 2 -8 -6z"/>
<path d="M2490 3291 c0 -6 4 -13 10 -16 6 -3 7 1 4 9 -7 18 -14 21 -14 7z"/>
<path d="M3150 3290 c0 -5 5 -10 11 -10 5 0 7 5 4 10 -3 6 -8 10 -11 10 -2 0
-4 -4 -4 -10z"/>
<path d="M3403 3285 c0 -8 4 -12 9 -9 4 3 8 9 8 15 0 5 -4 9 -8 9 -5 0 -9 -7
-9 -15z"/>
<path d="M3585 3260 c3 -5 8 -10 11 -10 2 0 4 5 4 10 0 6 -5 10 -11 10 -5 0
-7 -4 -4 -10z"/>
<path d="M3676 1897 c3 -10 9 -15 12 -12 3 3 0 11 -7 18 -10 9 -11 8 -5 -6z"/>
<path d="M1730 1881 c0 -5 5 -13 10 -16 6 -3 10 -2 10 4 0 5 -4 13 -10 16 -5
3 -10 2 -10 -4z"/>
<path d="M3665 1860 c-19 -8 -19 -9 3 -9 12 -1 22 4 22 9 0 6 -1 10 -2 9 -2 0
-12 -4 -23 -9z"/>
<path d="M1760 1856 c0 -2 7 -7 16 -10 8 -3 12 -2 9 4 -6 10 -25 14 -25 6z"/>
<path d="M1927 1838 c-5 -21 -5 -21 7 -6 7 10 15 15 18 12 4 -3 9 -1 13 5 3 6
-2 11 -13 11 -12 0 -22 -9 -25 -22z"/>
<path d="M1860 1846 c0 -2 8 -10 18 -17 15 -13 16 -12 3 4 -13 16 -21 21 -21
13z"/>
<path d="M1416 1538 c-9 -43 -2 -45 11 -3 6 19 8 35 3 35 -4 0 -10 -14 -14
-32z"/>
<path d="M1401 1474 c0 -11 3 -14 6 -6 3 7 2 16 -1 19 -3 4 -6 -2 -5 -13z"/>
<path d="M1330 1179 c0 -5 5 -7 10 -4 6 3 10 8 10 11 0 2 -4 4 -10 4 -5 0 -10
-5 -10 -11z"/>
<path d="M1848 1033 c7 -3 16 -2 19 1 4 3 -2 6 -13 5 -11 0 -14 -3 -6 -6z"/>
<path d="M2388 893 c6 -2 18 -2 25 0 6 3 1 5 -13 5 -14 0 -19 -2 -12 -5z"/>
<path d="M2768 893 c7 -3 16 -2 19 1 4 3 -2 6 -13 5 -11 0 -14 -3 -6 -6z"/>
<path d="M2548 883 c23 -2 59 -2 80 0 20 2 1 4 -43 4 -44 0 -61 -2 -37 -4z"/>
</g>
</svg>
