<?xml version="1.0" standalone="no"?>
<!DOCTYPE svg PUBLIC "-//W3C//DTD SVG 20010904//EN"
 "http://www.w3.org/TR/2001/REC-SVG-20010904/DTD/svg10.dtd">
<svg version="1.0" xmlns="http://www.w3.org/2000/svg"
 width="801.000000pt" height="801.000000pt" viewBox="0 0 801.000000 801.000000"
 preserveAspectRatio="xMidYMid meet">

<g transform="translate(0.000000,801.000000) scale(0.100000,-0.100000)"
fill="#000000" stroke="none">
<path d="M4557 6520 c27 -53 28 -58 28 -220 0 -154 -2 -168 -24 -213 -31 -63
-101 -123 -164 -142 -28 -8 -57 -15 -64 -15 -9 0 -13 -15 -13 -46 0 -37 -5
-51 -29 -75 -25 -24 -37 -29 -80 -29 l-51 0 0 -84 0 -83 73 -6 c192 -17 450
-92 656 -192 73 -36 134 -65 136 -65 1 0 14 17 28 38 l25 39 -34 27 c-50 39
-46 74 16 159 70 95 73 94 271 -44 88 -61 166 -117 174 -125 29 -29 18 -77
-33 -145 -55 -75 -90 -86 -143 -49 -16 12 -31 21 -33 19 -1 -2 -13 -19 -25
-37 l-23 -33 128 -122 c143 -137 253 -269 339 -408 221 -356 330 -799 297
-1201 -43 -514 -249 -952 -613 -1303 -168 -163 -316 -266 -521 -365 -681 -329
-1483 -248 -2089 211 -75 56 111 -135 916 -940 l1010 -1010 111 23 c770 165
1453 535 2004 1086 203 202 356 388 507 615 260 390 449 822 559 1278 l28 118
-1697 1697 c-1433 1432 -1694 1688 -1670 1642z"/>
<path d="M3583 6504 c-54 -27 -65 -66 -61 -219 3 -135 3 -135 33 -164 17 -16
40 -32 51 -35 20 -6 22 -2 26 46 4 40 11 57 32 75 27 23 29 23 317 23 l290 0
24 -25 c20 -19 25 -34 25 -76 0 -51 0 -51 28 -44 34 8 67 38 82 75 7 18 10 75
8 160 l-3 132 -37 34 -38 34 -372 0 c-318 0 -378 -3 -405 -16z"/>
<path d="M3635 5821 c88 -89 161 -161 162 -161 2 0 3 27 3 60 l0 60 -51 0
c-28 0 -59 5 -71 11 -24 13 -48 67 -48 108 0 25 -4 30 -37 36 -20 4 -55 16
-78 27 -32 16 -9 -11 120 -141z"/>
<path d="M2895 5620 c5 -8 19 -29 32 -46 34 -46 30 -86 -12 -121 l-34 -29 35
-50 36 -51 75 43 c41 23 76 44 79 46 2 2 -47 53 -108 114 -61 60 -107 102
-103 94z"/>
<path d="M2628 5251 c-14 -12 -41 -21 -59 -21 l-34 0 62 -62 62 -61 35 27 36
27 -17 30 c-10 16 -27 41 -38 55 l-20 26 -27 -21z"/>
<path d="M3963 5133 c-10 -3 -13 -41 -13 -139 l0 -134 30 0 30 0 0 140 c0 127
-2 140 -17 139 -10 0 -24 -3 -30 -6z"/>
<path d="M3235 4886 c-17 -13 -16 -17 26 -89 l44 -75 27 14 28 15 -31 52 c-16
29 -35 62 -41 75 -13 25 -26 28 -53 8z"/>
<path d="M4640 4828 l-43 -71 23 -19 c12 -10 25 -18 29 -18 3 0 26 35 50 77
41 72 42 77 25 90 -30 22 -40 15 -84 -59z"/>
<path d="M4515 4234 l-470 -433 -55 0 c-30 0 -67 -4 -81 -9 -75 -29 -127 -116
-116 -194 l6 -43 -165 -165 -164 -165 60 -60 60 -60 165 165 164 164 45 -3
c60 -3 126 27 162 74 23 31 29 50 34 110 l5 72 404 439 c222 242 417 453 433
470 l28 30 -22 21 -23 21 -470 -434z m-473 -561 c23 -21 23 -84 1 -112 -10
-12 -35 -24 -55 -28 -32 -5 -41 -1 -68 25 -33 33 -37 56 -18 98 24 52 92 61
140 17z"/>
<path d="M2706 4352 l-15 -29 75 -42 c72 -41 76 -42 89 -25 21 28 18 39 -17
57 -18 8 -52 27 -75 42 l-42 26 -15 -29z"/>
<path d="M5167 4342 c-88 -50 -90 -52 -68 -81 l18 -24 76 43 76 43 -15 29 c-8
15 -16 28 -17 28 -1 0 -33 -18 -70 -38z"/>
<path d="M2460 3620 l0 -30 135 0 135 0 0 30 0 30 -135 0 -135 0 0 -30z"/>
<path d="M5222 3618 l3 -33 135 0 135 0 3 33 3 32 -141 0 -141 0 3 -32z"/>
<path d="M2767 2954 c-68 -39 -76 -47 -67 -64 6 -10 15 -22 20 -25 10 -6 150
71 150 83 -1 4 -6 17 -13 29 l-12 22 -78 -45z"/>
<path d="M5096 2971 l-16 -29 79 -45 78 -44 17 28 16 28 -72 42 c-40 23 -76
44 -80 46 -4 2 -14 -10 -22 -26z"/>
<path d="M3260 2434 c-23 -41 -40 -77 -39 -78 2 -2 14 -8 25 -14 26 -14 26
-13 77 75 l36 63 -22 15 c-12 8 -25 15 -29 15 -3 0 -25 -34 -48 -76z"/>
<path d="M4616 2495 c-17 -13 -16 -17 24 -89 23 -42 44 -76 46 -76 5 0 46 20
53 26 7 6 -81 154 -92 154 -7 0 -20 -7 -31 -15z"/>
<path d="M3950 2235 l0 -135 30 0 30 0 0 135 0 135 -30 0 -30 0 0 -135z"/>
</g>
</svg>
